<svg xmlns="http://www.w3.org/2000/svg" fill="none" viewBox="0 0 192 52" preserveAspectRatio="xMidYMid meet"><g clip-path="url(#a)"><path fill="#CBD2DF" d="M192 39.43h-8.3V37.4h5.75V2.04h-5.74V0H192v39.43Zm-9.12-18.04c0-2.64-.62-4.74-1.85-6.3a6.05 6.05 0 0 0-5.01-2.34c-2.11 0-3.78.78-5.02 2.34-1.23 1.56-1.84 3.66-1.84 6.3 0 2.63.61 4.72 1.84 6.27a6.07 6.07 0 0 0 5.02 2.32c2.1 0 3.77-.77 5-2.32 1.25-1.55 1.86-3.64 1.86-6.27Zm2.83 0c0 1.66-.24 3.16-.72 4.52a10.08 10.08 0 0 1-2.01 3.46 9.24 9.24 0 0 1-6.96 3.02 9.13 9.13 0 0 1-6.96-3.02c-.87-.95-1.54-2.1-2.02-3.46a13.49 13.49 0 0 1-.72-4.52c0-1.66.24-3.16.72-4.53a10.3 10.3 0 0 1 2.01-3.48 8.98 8.98 0 0 1 6.97-3.03 9.09 9.09 0 0 1 6.96 3.03c.86.96 1.53 2.12 2.01 3.48.48 1.36.72 2.87.72 4.53Zm-22.21-1.71c-.06-2.2-.58-3.91-1.57-5.13a5.08 5.08 0 0 0-4.19-1.84 5.6 5.6 0 0 0-2.57.57c-.75.39-1.4.9-1.97 1.53-.56.64-1 1.38-1.31 2.23a9 9 0 0 0-.56 2.64h12.17Zm-15.08 1.66c0-1.84.27-3.45.8-4.82a10.51 10.51 0 0 1 2.1-3.45 8.28 8.28 0 0 1 2.95-2.05 9.08 9.08 0 0 1 3.43-.67c2.6 0 4.68.84 6.22 2.52 1.55 1.68 2.32 4.28 2.32 7.78a10.06 10.06 0 0 1-.08 1.26h-14.9c.07 2.59.72 4.56 1.92 5.95 1.2 1.38 3.12 2.08 5.75 2.08a11.86 11.86 0 0 0 5.3-1.1l.49 2.28a13.83 13.83 0 0 1-5.87 1.22 12.5 12.5 0 0 1-4.77-.82 8.54 8.54 0 0 1-5.1-5.76 16.25 16.25 0 0 1-.56-4.42Zm-3.86-6.68a9.16 9.16 0 0 0-3.82-1.7 8.65 8.65 0 0 0-1.8-.17 7.1 7.1 0 0 0-3.3.69 5.96 5.96 0 0 0-2.16 1.85 7.78 7.78 0 0 0-1.2 2.73 14.4 14.4 0 0 0-.37 3.32c0 2.77.7 4.9 2.1 6.38a7.27 7.27 0 0 0 5.54 2.22c1.32 0 2.38-.06 3.19-.18.8-.12 1.42-.25 1.83-.4V14.67h-.01Zm2.67 16.58c-.8.28-1.8.53-3.04.77-1.23.25-2.8.37-4.69.37a11.6 11.6 0 0 1-4.25-.75 9.27 9.27 0 0 1-5.42-5.64c-.51-1.36-.76-2.9-.76-4.6 0-1.6.21-3.08.64-4.43.42-1.34 1.05-2.5 1.87-3.48a8.41 8.41 0 0 1 3.02-2.28 9.79 9.79 0 0 1 4.09-.82 10.11 10.11 0 0 1 5.88 1.71V.77l2.67-.49v30.96h-.01ZM128.5 4.48c0 .63-.19 1.12-.57 1.49-.39.36-.85.55-1.4.55-.55 0-1.01-.19-1.4-.55a1.95 1.95 0 0 1-.57-1.49c0-.63.19-1.12.57-1.49.39-.36.86-.54 1.4-.54.55 0 1.01.18 1.4.54.38.37.57.86.57 1.5Zm-.62 27.41h-2.67V10.84h2.67v21.05Zm-11.38-2.85c.58-1.17 1.17-2.5 1.77-4.01a105.34 105.34 0 0 0 4.52-14.2h2.67a115.98 115.98 0 0 1-5.65 16.37 214.2 214.2 0 0 1-2.12 4.7h-2.55a113.28 113.28 0 0 1-6.11-15.36 98.83 98.83 0 0 1-1.65-5.7h2.84a101.62 101.62 0 0 0 4.52 14.2c.6 1.5 1.19 2.83 1.76 4Zm-16.07-11.49 4.56-6.96h5.22l-7.07 10.06c1.48 1.9 2.9 3.82 4.25 5.76a47.27 47.27 0 0 1 3.35 5.48h-5.39c-.24-.51-.56-1.1-.96-1.77-.4-.67-.83-1.36-1.28-2.08-.45-.72-.92-1.44-1.42-2.14-.5-.7-.97-1.37-1.44-2a44.2 44.2 0 0 0-2.81 4.06 63.94 63.94 0 0 0-2.28 3.93h-5.1c.41-.81.9-1.68 1.48-2.6a116.47 116.47 0 0 1 5.95-8.47l-7.1-10.23h5.46l4.58 6.96Zm-17.81-7.5c1.64 0 3.02.21 4.14.62 1.12.4 2.03.98 2.7 1.71a6.47 6.47 0 0 1 1.44 2.67c.28 1.05.43 2.2.43 3.44v12.92c-.77.16-1.92.36-3.47.59-1.55.23-3.3.35-5.24.35-1.3 0-2.47-.13-3.53-.37a7.33 7.33 0 0 1-2.73-1.19 5.56 5.56 0 0 1-1.77-2.12 7.32 7.32 0 0 1-.63-3.21c0-1.22.24-2.26.72-3.1a5.82 5.82 0 0 1 1.95-2.06c.82-.52 1.77-.9 2.85-1.14a16.22 16.22 0 0 1 7.04.1v-.81a6.3 6.3 0 0 0-.2-1.63 3.34 3.34 0 0 0-2.07-2.28 5.93 5.93 0 0 0-2.12-.33c-1.15 0-2.2.08-3.16.25-.97.17-1.74.35-2.35.57l-.62-4a20 20 0 0 1 2.75-.64c1.21-.22 2.5-.33 3.87-.33Zm.4 18.38c1.54 0 2.7-.08 3.5-.25v-5.45a11.52 11.52 0 0 0-4.58-.25c-.57.08-1.08.23-1.53.45-.45.22-.81.52-1.09.92-.27.4-.4.88-.4 1.48 0 1.17.37 1.98 1.1 2.43.75.44 1.75.67 3 .67Zm-26.14-7.74c0-2.23-.28-3.84-.84-4.82-.56-1-1.6-1.49-3.14-1.49-.55 0-1.15.04-1.8.12l-1.48.2v17.2h-4.97V11.27a33.1 33.1 0 0 1 8.67-1.14c1.48 0 2.7.2 3.64.57.94.39 1.73.88 2.36 1.51a11.27 11.27 0 0 1 2.71-1.36c.58-.2 1.2-.38 1.83-.51.64-.14 1.3-.2 1.95-.2 1.67 0 3.05.23 4.13.7a6.04 6.04 0 0 1 2.54 2 7.73 7.73 0 0 1 1.28 3.1 21 21 0 0 1 .35 3.97V31.9h-4.97V20.7c0-2.24-.28-3.85-.83-4.83-.54-1-1.6-1.49-3.16-1.49a7.78 7.78 0 0 0-3.86 1.14c.22.68.37 1.4.45 2.16.08.75.13 1.57.13 2.44V31.9H56.9V20.7h-.02Zm90.15 29.4v-7.21h.7v5.86a27.19 27.19 0 0 1 1.92-2.92l1.2-1.58c.4-.52.8-.97 1.15-1.36h.57v7.2h-.7v-6.07l-.7.85c-.25.32-.5.67-.77 1.04l-.81 1.14a94.16 94.16 0 0 0-1.46 2.19c-.2.32-.38.61-.5.85h-.6Zm-7.43 0v-7.21h.7v5.86a27.19 27.19 0 0 1 1.92-2.92l1.2-1.58c.41-.52.8-.97 1.15-1.36h.57v7.2h-.7v-6.07c-.2.24-.44.52-.69.85l-.78 1.04-.81 1.14a94.16 94.16 0 0 0-1.46 2.19c-.2.32-.38.61-.5.85h-.6Zm-5.8-6.24c-.37 0-.73.04-1.06.13-.34.1-.63.24-.88.44-.24.2-.44.44-.59.74-.14.3-.21.66-.21 1.07 0 .4.07.76.21 1.07.15.3.35.54.6.74.24.2.53.34.87.43.33.1.69.14 1.07.14v-4.76Zm0 5.34c-.4 0-.8-.05-1.22-.16-.41-.11-.79-.28-1.12-.51a2.67 2.67 0 0 1-1.16-2.28 2.67 2.67 0 0 1 1.16-2.29c.34-.23.7-.4 1.12-.5.42-.12.82-.17 1.23-.17v-.85h.69v.85c.4 0 .8.05 1.22.16.41.11.8.28 1.13.52a2.66 2.66 0 0 1 1.16 2.28 2.66 2.66 0 0 1-1.16 2.28c-.34.23-.7.4-1.13.5-.42.12-.82.17-1.22.17v.9h-.7v-.9Zm.7-.59c.38 0 .73-.04 1.07-.14.33-.09.62-.23.87-.43.25-.2.44-.44.59-.74.14-.3.22-.66.22-1.07 0-.41-.08-.76-.22-1.07-.15-.3-.34-.55-.6-.74-.24-.2-.53-.34-.86-.43-.34-.1-.7-.14-1.07-.14v4.76Zm-8.24-4.91c-.26.6-.52 1.2-.77 1.82-.25.61-.5 1.28-.77 1.99h3.1a64.09 64.09 0 0 0-1.56-3.81Zm2.5 6.4-.38-1.03-.35-.95h-3.53l-.36.95-.36 1.02h-.74l.78-2.1c.25-.64.48-1.25.72-1.83a64.85 64.85 0 0 1 1.44-3.27h.62a51.67 51.67 0 0 1 1.44 3.27l.72 1.84.79 2.1h-.8Zm-9.22-6.66c-.26 0-.49 0-.68.03l-.48.04v3.18h.9c.39 0 .74-.02 1.05-.06.3-.05.57-.13.79-.26.22-.12.4-.28.5-.5.12-.22.18-.5.18-.82 0-.32-.06-.59-.2-.79-.13-.2-.3-.37-.51-.49-.21-.12-.46-.2-.73-.25a4.3 4.3 0 0 0-.82-.08Zm-.03-.62c1.03 0 1.79.2 2.3.59.5.39.75.94.75 1.65 0 .41-.08.76-.22 1.05-.15.29-.36.52-.63.7-.27.17-.6.3-1 .38-.4.08-.84.12-1.34.12h-.98v2.79h-.71v-7.07a8.86 8.86 0 0 1 1.83-.2Zm-2.97.07v.61h-3.2v6.6h-.72v-7.21h3.92Zm-6.26 3.6c0-.49-.07-.92-.2-1.31a2.4 2.4 0 0 0-2.46-1.82c-.4 0-.76.07-1.08.22-.33.14-.6.34-.83.62-.23.26-.4.6-.53.98s-.2.82-.2 1.3c0 .49.07.92.2 1.3.12.4.3.72.53.99a2.4 2.4 0 0 0 1.92.84c.4 0 .77-.07 1.1-.22.33-.14.6-.35.83-.62.23-.27.4-.6.53-.98.12-.38.19-.82.19-1.3Zm.75 0c0 .6-.08 1.15-.27 1.62-.18.47-.42.87-.74 1.18-.31.32-.67.56-1.08.71a3.63 3.63 0 0 1-2.62 0c-.41-.15-.77-.4-1.08-.71a3.4 3.4 0 0 1-.75-1.18 4.51 4.51 0 0 1-.27-1.63c0-.61.1-1.16.27-1.62.19-.47.43-.86.75-1.18.3-.31.67-.55 1.08-.71a3.63 3.63 0 0 1 2.62 0c.41.16.77.4 1.08.71.32.32.56.71.75 1.18.17.47.26 1.01.26 1.62Zm-12.33 3.6v-7.2h4.2v.61h-3.48V46h3.1v.61h-3.1v2.87h3.75v.61H98.7Zm-5.04-6.59v.09c0 .48-.01 1-.04 1.53a12.9 12.9 0 0 1-.16 1.59 7.86 7.86 0 0 1-.4 1.5c-.18.47-.42.9-.73 1.27h3.69V43.5h-2.36Zm-2.17 6.6V52h-.68v-2.53h.65c.35-.36.63-.77.83-1.26.2-.48.35-1 .45-1.56.1-.56.16-1.14.18-1.74l.03-1.8v-.23h3.77v6.59h.68V52h-.68v-1.92h-5.23Zm-7.35 0v-7.21h.7v5.86a26.82 26.82 0 0 1 1.92-2.92l1.2-1.58c.41-.52.8-.97 1.15-1.36h.57v7.2h-.7v-6.07c-.2.24-.44.52-.69.85l-.78 1.04-.81 1.14a111.7 111.7 0 0 0-1.46 2.19c-.2.32-.37.61-.5.85h-.6Zm-5.89-4.06h1.38c.27 0 .5-.03.74-.06.23-.04.43-.11.6-.21.18-.1.3-.24.4-.4.1-.18.15-.4.15-.65a1.05 1.05 0 0 0-.6-1c-.2-.1-.43-.18-.69-.22a5.53 5.53 0 0 0-1.53-.05l-.45.05v2.54Zm0 .6v2.84l.47.04a6.68 6.68 0 0 0 1.58-.04c.3-.04.57-.11.8-.23.24-.1.42-.26.56-.45.14-.2.2-.44.2-.75 0-.28-.04-.5-.14-.7-.1-.17-.24-.33-.42-.43-.18-.1-.4-.18-.66-.22a5.38 5.38 0 0 0-.87-.07h-1.52v.01Zm1.03 3.52-.42-.02a5.44 5.44 0 0 1-.94-.1 3.42 3.42 0 0 1-.38-.09v-6.92c.12-.04.27-.07.42-.09l.48-.06.48-.04h.44c.4 0 .76.02 1.11.09.35.06.66.16.92.3a1.55 1.55 0 0 1 .87 1.46c0 .4-.1.73-.3 1-.2.28-.46.47-.8.57a1.82 1.82 0 0 1 1.03.56 1.68 1.68 0 0 1 .43 1.25c0 .68-.27 1.2-.82 1.55-.54.36-1.38.54-2.52.54Zm-6.01-.07h-.71v-2.9H71.4l-.38-.01a4.8 4.8 0 0 1-.38-.03 12.85 12.85 0 0 0-1.3 2.13c-.15.28-.28.55-.4.83h-.76c.11-.26.25-.55.4-.85a25.33 25.33 0 0 1 .98-1.65l.37-.55a3.1 3.1 0 0 1-.47-.17 1.74 1.74 0 0 1-.92-.91c-.1-.24-.16-.54-.16-.9 0-.73.27-1.29.81-1.66.55-.39 1.3-.57 2.26-.57a8.93 8.93 0 0 1 1.82.2v7.04h-.01Zm-.71-6.58a14.23 14.23 0 0 0-1.2-.07c-.28 0-.56.02-.83.07-.27.05-.5.13-.72.25a1.42 1.42 0 0 0-.7 1.27c0 .34.06.62.19.82.12.2.29.36.5.47.22.1.49.18.78.21.31.04.64.05 1 .05h.97V43.5Zm-11.27 6.58v-7.2h.7v5.86a26.83 26.83 0 0 1 1.93-2.92l1.2-1.58c.4-.52.8-.97 1.15-1.36h.57v7.2h-.7v-6.07a18.83 18.83 0 0 0-1.48 1.9l-.81 1.13a108.55 108.55 0 0 0-1.46 2.19c-.2.32-.38.61-.5.85h-.6Zm-5.04-6.59v.09l-.03 1.53a12.9 12.9 0 0 1-.17 1.59 7.87 7.87 0 0 1-.4 1.5c-.18.47-.42.9-.73 1.27h3.69V43.5h-2.36Zm-2.17 6.6V52h-.68v-2.53h.65c.35-.36.63-.77.83-1.26.2-.48.35-1 .45-1.56.1-.56.16-1.14.18-1.74l.03-1.8v-.23h3.77v6.59h.68V52h-.68v-1.92h-5.23Zm-3.38-2.53a24.13 24.13 0 0 0 .9-2.27l.42-1.23.34-1.18h.75a44.82 44.82 0 0 1-.86 2.59 55.75 55.75 0 0 1-.97 2.34c-.1.25-.23.51-.36.8-.13.27-.3.53-.5.76a2.2 2.2 0 0 1-1.76.8 1.9 1.9 0 0 1-.77-.18l.13-.59.24.1c.1.04.26.06.43.06.24 0 .45-.03.63-.1.17-.08.33-.17.46-.3.13-.11.24-.26.34-.41.1-.16.18-.33.26-.5a23.93 23.93 0 0 1-1.65-2.9c-.23-.46-.44-.9-.62-1.33l-.49-1.15h.8a26.59 26.59 0 0 0 2.28 4.68Zm-3.45-4.68v.61h-2.33v6.6h-.7v-6.6h-2.34v-.61h5.37Zm-7.97 7.35a3.25 3.25 0 0 1-2.35-.98c-.3-.32-.53-.71-.7-1.18-.17-.46-.25-1-.25-1.6 0-.6.1-1.14.27-1.6.18-.47.43-.86.74-1.17.31-.32.67-.56 1.07-.73.41-.16.83-.24 1.27-.24a4.67 4.67 0 0 1 1.76.34l.27.13-.23.62c-.18-.1-.4-.21-.67-.3-.26-.1-.6-.16-1-.16-.45 0-.85.08-1.19.23-.34.16-.62.37-.85.65-.23.27-.4.6-.51.98a4.44 4.44 0 0 0 0 2.56c.11.39.28.72.5.99.23.26.5.47.83.62.33.14.7.21 1.11.21.46 0 .85-.04 1.16-.13.31-.08.54-.17.7-.26l.2.6c-.05.04-.13.08-.25.13a5.65 5.65 0 0 1-1.88.3ZM13.2 38.18h161.5v.9H13.2v-.9ZM0 0h8.3v2.03H2.54V37.4h5.74v2.03H0V0Z"/><path fill="#D54B44" fill-rule="evenodd" d="M25.16 10.07c6.17 0 11.17 4.95 11.17 11.07s-5 11.08-11.16 11.08A11.12 11.12 0 0 1 14 21.14c0-6.12 5-11.07 11.16-11.07Z" clip-rule="evenodd"/></g><defs><clipPath id="a"><path fill="#fff" d="M0 0h192v52H0z"/></clipPath></defs></svg>

