<svg width="32" height="32" viewBox="0 0 32 32" fill="none" xmlns="http://www.w3.org/2000/svg">
<g clip-path="url(#clip0_730_8985)">
<mask id="mask0_730_8985" style="mask-type:luminance" maskUnits="userSpaceOnUse" x="0" y="0" width="33" height="33">
<path d="M16.0182 32.0036C24.8648 32.0036 32.0364 24.8394 32.0364 16.0018C32.0364 7.16426 24.8648 0 16.0182 0C7.17159 0 0 7.16426 0 16.0018C0 24.8394 7.17159 32.0036 16.0182 32.0036Z" fill="white"/>
</mask>
<g mask="url(#mask0_730_8985)">
<mask id="mask1_730_8985" style="mask-type:luminance" maskUnits="userSpaceOnUse" x="-204" y="-30" width="484" height="426">
<path d="M279.59 -29.0942H-203.868V395.681H279.59V-29.0942Z" fill="white"/>
</mask>
<g mask="url(#mask1_730_8985)">
<path fill-rule="evenodd" clip-rule="evenodd" d="M16.0179 1.45471C7.97549 1.45471 1.45586 7.96767 1.45586 16.0018C1.45586 24.036 7.97549 30.5489 16.0179 30.5489C24.0602 30.5489 30.5799 24.036 30.5799 16.0018C30.5799 7.96767 24.0602 1.45471 16.0179 1.45471ZM-1.45654 16.0018C-1.45654 6.36084 6.36701 -1.45471 16.0179 -1.45471C25.6687 -1.45471 33.4923 6.36084 33.4923 16.0018C33.4923 25.6428 25.6687 33.4583 16.0179 33.4583C6.36701 33.4583 -1.45654 25.6428 -1.45654 16.0018Z" fill="black"/>
</g>
</g>
<mask id="mask2_730_8985" style="mask-type:luminance" maskUnits="userSpaceOnUse" x="6" y="11" width="19" height="11">
<path d="M16.5462 21.7698C16.5462 21.7698 16.8739 21.7334 17.0413 21.5552C17.1942 21.3916 17.1906 21.0861 17.1906 21.0861C17.1906 21.0861 17.1687 19.6532 17.8459 19.4423C18.5121 19.235 19.3712 20.8242 20.2814 21.4388C20.9694 21.9007 21.49 21.7989 21.49 21.7989L23.9219 21.7662C23.9219 21.7662 25.1924 21.6898 24.5917 20.7079C24.5408 20.6278 24.2386 19.9841 22.786 18.6567C21.2607 17.2675 21.4645 17.4929 23.303 15.0927C24.4206 13.6307 24.8684 12.7397 24.7301 12.3578C24.599 11.9941 23.7762 12.0887 23.7762 12.0887L21.0386 12.1069C21.0386 12.1069 20.8347 12.0814 20.6855 12.1687C20.5398 12.256 20.4416 12.456 20.4416 12.456C20.4416 12.456 20.0083 13.587 19.4295 14.5472C18.2099 16.5765 17.7221 16.6819 17.5255 16.5583C17.0632 16.2637 17.176 15.3763 17.176 14.7472C17.176 12.7797 17.4818 11.9614 16.5826 11.7468C16.2841 11.6777 16.0657 11.6305 15.3048 11.6232C14.3292 11.6123 13.5028 11.6268 13.0331 11.8523C12.7201 12.0014 12.4798 12.336 12.629 12.3542C12.8111 12.3796 13.2188 12.4633 13.4372 12.7542C13.7175 13.1288 13.7066 13.9689 13.7066 13.9689C13.7066 13.9689 13.8668 16.2855 13.3317 16.5728C12.964 16.7692 12.4579 16.3692 11.3694 14.5253C10.8124 13.5834 10.3938 12.5397 10.3938 12.5397C10.3938 12.5397 10.3137 12.3433 10.1681 12.2414C9.99332 12.1141 9.7494 12.0741 9.7494 12.0741L7.15009 12.0923C7.15009 12.0923 6.76055 12.1032 6.61493 12.2705C6.48387 12.4233 6.60401 12.7288 6.60401 12.7288C6.60401 12.7288 8.63905 17.3984 10.9471 19.755C13.0623 21.9116 15.4613 21.7734 15.4613 21.7734H16.5462V21.7698Z" fill="white"/>
</mask>
<g mask="url(#mask2_730_8985)">
<mask id="mask3_730_8985" style="mask-type:luminance" maskUnits="userSpaceOnUse" x="-204" y="-30" width="484" height="426">
<path d="M279.591 -29.0941H-203.868V395.681H279.591V-29.0941Z" fill="white"/>
</mask>
<g mask="url(#mask3_730_8985)">
<path d="M28.3961 7.99377H2.9126V25.4503H28.3961V7.99377Z" fill="black"/>
</g>
</g>
</g>
<defs>
<clipPath id="clip0_730_8985">
<rect width="32" height="32" fill="white"/>
</clipPath>
</defs>
</svg>
