<svg width="32" height="32" viewBox="0 0 32 32" fill="none" xmlns="http://www.w3.org/2000/svg">
<g clip-path="url(#clip0_730_9014)">
<mask id="mask0_730_9014" style="mask-type:luminance" maskUnits="userSpaceOnUse" x="0" y="0" width="32" height="33">
<path d="M15.9982 32.0036C24.8337 32.0036 31.9964 24.8394 31.9964 16.0018C31.9964 7.16426 24.8337 0 15.9982 0C7.16263 0 0 7.16426 0 16.0018C0 24.8394 7.16263 32.0036 15.9982 32.0036Z" fill="white"/>
</mask>
<g mask="url(#mask0_730_9014)">
<path fill-rule="evenodd" clip-rule="evenodd" d="M15.998 1.45471C7.96565 1.45471 1.45417 7.96767 1.45417 16.0018C1.45417 24.036 7.96565 30.5489 15.998 30.5489C24.0303 30.5489 30.5418 24.036 30.5418 16.0018C30.5418 7.96767 24.0303 1.45471 15.998 1.45471ZM-1.45459 16.0018C-1.45459 6.36084 6.35919 -1.45471 15.998 -1.45471C25.6368 -1.45471 33.4505 6.36084 33.4505 16.0018C33.4505 25.6428 25.6368 33.4583 15.998 33.4583C6.35919 33.4583 -1.45459 25.6428 -1.45459 16.0018Z" fill="black"/>
</g>
<mask id="mask1_730_9014" style="mask-type:luminance" maskUnits="userSpaceOnUse" x="8" y="10" width="16" height="12">
<path d="M18.8231 16.009L14.06 18.7984V13.2196L18.8231 16.009ZM23.2699 18.5948V13.4087C23.2699 13.4087 23.2699 10.9103 20.7647 10.9103H11.2312C11.2312 10.9103 8.72607 10.9103 8.72607 13.4087V18.5948C8.72607 18.5948 8.72607 21.0933 11.2312 21.0933H20.7647C20.7647 21.0933 23.2699 21.0933 23.2699 18.5948Z" fill="white"/>
</mask>
<g mask="url(#mask1_730_9014)">
<mask id="mask2_730_9014" style="mask-type:luminance" maskUnits="userSpaceOnUse" x="-73" y="-73" width="484" height="426">
<path d="M410.135 -72.7356H-72.7192V352.04H410.135V-72.7356Z" fill="white"/>
</mask>
<g mask="url(#mask2_730_9014)">
<path d="M26.906 7.27344H5.09033V24.73H26.906V7.27344Z" fill="black"/>
</g>
</g>
</g>
<defs>
<clipPath id="clip0_730_9014">
<rect width="32" height="32" fill="white"/>
</clipPath>
</defs>
</svg>
